<?xml version="1.0" encoding="UTF-8" standalone="no"?>
<!DOCTYPE svg PUBLIC "-//W3C//DTD SVG 20010904//EN"
                     "http://www.w3.org/TR/2001/REC-SVG-20010904/DTD/svg10.dtd">
<svg xmlns="http://www.w3.org/2000/svg" width="340" height="390" viewBox="0 0 340 390">
  <style>
    path { stroke-width: 2px; stroke-linejoin: round; fill-rule: evenodd }
    text { font: 13px monospace; text-anchor: middle; alignment-baseline: central }
  </style>
  <path d="M22,22h16v16h-16zM22,62h316v76h-56v-20h-24v20h-236zM2,352h96v16h-96z" fill="rgba(0, 0, 255, 0.2)" stroke="rgb(0, 0, 255)"/>
  <path d="M42,22h296v36h-16v-20h-44v20h-16v-20h-24v20h-216v-16h20zM2,372h96v16h-96z" fill="rgba(0, 127, 255, 0.2)" stroke="rgb(0, 127, 255)"/>
  <path d="M22,142h316v96h-316zM122,352h96v16h-96z" fill="rgba(255, 0, 0, 0.2)" stroke="rgb(255, 0, 0)"/>
  <path d="M22,242h316v96h-316zM122,372h96v16h-96z" fill="rgba(255, 127, 0, 0.2)" stroke="rgb(255, 127, 0)"/>
  <path d="M242,42h16v16h-16zM282,42h36v16h-36zM262,122h16v16h-16zM242,362h96v16h-96z" fill="rgba(0, 127, 0, 0.2)" stroke="rgb(0, 127, 0)"/>

  <text x="30" y="10">x0</text>
  <text x="50" y="10">x1</text>
  <text x="70" y="10">x2</text>
  <text x="90" y="10">x3</text>
  <text x="110" y="10">x4</text>
  <text x="130" y="10">x5</text>
  <text x="150" y="10">x6</text>
  <text x="170" y="10">x7</text>
  <text x="190" y="10">x8</text>
  <text x="210" y="10">x9</text>
  <text x="230" y="10">xA</text>
  <text x="250" y="10">xB</text>
  <text x="270" y="10">xC</text>
  <text x="290" y="10">xD</text>
  <text x="310" y="10">xE</text>
  <text x="330" y="10">xF</text>

  <text x="10" y="30">0x</text>
  <text x="10" y="50">1x</text>
  <text x="10" y="70">2x</text>
  <text x="10" y="90">3x</text>
  <text x="10" y="110">4x</text>
  <text x="10" y="130">5x</text>
  <text x="10" y="150">6x</text>
  <text x="10" y="170">7x</text>
  <text x="10" y="190">8x</text>
  <text x="10" y="210">9x</text>
  <text x="10" y="230">Ax</text>
  <text x="10" y="250">Bx</text>
  <text x="10" y="270">Cx</text>
  <text x="10" y="290">Dx</text>
  <text x="10" y="310">Ex</text>
  <text x="10" y="330">Fx</text>

  <text x="30" y="30">␀</text>
  <text x="50" y="30">a</text>
  <text x="70" y="30">b</text>
  <text x="90" y="30">c</text>
  <text x="110" y="30">d</text>
  <text x="130" y="30">e</text>
  <text x="150" y="30">f</text>
  <text x="170" y="30">g</text>
  <text x="190" y="30">h</text>
  <text x="210" y="30">i</text>
  <text x="230" y="30">j</text>
  <text x="250" y="30">k</text>
  <text x="270" y="30">l</text>
  <text x="290" y="30">m</text>
  <text x="310" y="30">n</text>
  <text x="330" y="30">o</text>

  <text x="30" y="50">p</text>
  <text x="50" y="50">q</text>
  <text x="70" y="50">r</text>
  <text x="90" y="50">s</text>
  <text x="110" y="50">t</text>
  <text x="130" y="50">u</text>
  <text x="150" y="50">v</text>
  <text x="170" y="50">w</text>
  <text x="190" y="50">x</text>
  <text x="210" y="50">y</text>
  <text x="230" y="50">z</text>
  <text x="250" y="50">｢</text>
  <text x="270" y="50">|</text>
  <text x="290" y="50">｣</text>
  <text x="310" y="50">¯</text>
  <text x="330" y="50">\</text>

  <text x="30" y="70"> </text>
  <text x="50" y="70">!</text>
  <text x="70" y="70">"</text>
  <text x="90" y="70">#</text>
  <text x="110" y="70">$</text>
  <text x="130" y="70">%</text>
  <text x="150" y="70">&amp;</text>
  <text x="170" y="70">'</text>
  <text x="190" y="70">(</text>
  <text x="210" y="70">)</text>
  <text x="230" y="70">*</text>
  <text x="250" y="70">+</text>
  <text x="270" y="70">,</text>
  <text x="290" y="70">-</text>
  <text x="310" y="70">.</text>
  <text x="330" y="70">/</text>

  <text x="30" y="90">0</text>
  <text x="50" y="90">1</text>
  <text x="70" y="90">2</text>
  <text x="90" y="90">3</text>
  <text x="110" y="90">4</text>
  <text x="130" y="90">5</text>
  <text x="150" y="90">6</text>
  <text x="170" y="90">7</text>
  <text x="190" y="90">8</text>
  <text x="210" y="90">9</text>
  <text x="230" y="90">:</text>
  <text x="250" y="90">;</text>
  <text x="270" y="90">&lt;</text>
  <text x="290" y="90">=</text>
  <text x="310" y="90">&gt;</text>
  <text x="330" y="90">?</text>

  <text x="30" y="110">@</text>
  <text x="50" y="110">A</text>
  <text x="70" y="110">B</text>
  <text x="90" y="110">C</text>
  <text x="110" y="110">D</text>
  <text x="130" y="110">E</text>
  <text x="150" y="110">F</text>
  <text x="170" y="110">G</text>
  <text x="190" y="110">H</text>
  <text x="210" y="110">I</text>
  <text x="230" y="110">J</text>
  <text x="250" y="110">K</text>
  <text x="270" y="110">L</text>
  <text x="290" y="110">M</text>
  <text x="310" y="110">N</text>
  <text x="330" y="110">O</text>

  <text x="30" y="130">P</text>
  <text x="50" y="130">Q</text>
  <text x="70" y="130">R</text>
  <text x="90" y="130">S</text>
  <text x="110" y="130">T</text>
  <text x="130" y="130">U</text>
  <text x="150" y="130">V</text>
  <text x="170" y="130">W</text>
  <text x="190" y="130">X</text>
  <text x="210" y="130">Y</text>
  <text x="230" y="130">Z</text>
  <text x="250" y="130">[</text>
  <text x="270" y="130">¥</text>
  <text x="290" y="130">]</text>
  <text x="310" y="130">^</text>
  <text x="330" y="130">_</text>

  <text x="30" y="150">を</text>
  <text x="50" y="150">あ</text>
  <text x="70" y="150">い</text>
  <text x="90" y="150">う</text>
  <text x="110" y="150">え</text>
  <text x="130" y="150">お</text>
  <text x="150" y="150">か</text>
  <text x="170" y="150">き</text>
  <text x="190" y="150">く</text>
  <text x="210" y="150">け</text>
  <text x="230" y="150">こ</text>
  <text x="250" y="150">さ</text>
  <text x="270" y="150">し</text>
  <text x="290" y="150">す</text>
  <text x="310" y="150">せ</text>
  <text x="330" y="150">そ</text>

  <text x="30" y="170">た</text>
  <text x="50" y="170">ち</text>
  <text x="70" y="170">つ</text>
  <text x="90" y="170">て</text>
  <text x="110" y="170">と</text>
  <text x="130" y="170">な</text>
  <text x="150" y="170">に</text>
  <text x="170" y="170">ぬ</text>
  <text x="190" y="170">ね</text>
  <text x="210" y="170">の</text>
  <text x="230" y="170">は</text>
  <text x="250" y="170">ひ</text>
  <text x="270" y="170">ふ</text>
  <text x="290" y="170">へ</text>
  <text x="310" y="170">ほ</text>
  <text x="330" y="170">ま</text>

  <text x="30" y="190">み</text>
  <text x="50" y="190">む</text>
  <text x="70" y="190">め</text>
  <text x="90" y="190">も</text>
  <text x="110" y="190">や</text>
  <text x="130" y="190">ゆ</text>
  <text x="150" y="190">よ</text>
  <text x="170" y="190">ら</text>
  <text x="190" y="190">り</text>
  <text x="210" y="190">る</text>
  <text x="230" y="190">れ</text>
  <text x="250" y="190">ろ</text>
  <text x="270" y="190">わ</text>
  <text x="290" y="190">ん</text>
  <text x="310" y="190">が</text>
  <text x="330" y="190">ぎ</text>

  <text x="30" y="210">ぐ</text>
  <text x="50" y="210">げ</text>
  <text x="70" y="210">ご</text>
  <text x="90" y="210">ざ</text>
  <text x="110" y="210">じ</text>
  <text x="130" y="210">ず</text>
  <text x="150" y="210">ぜ</text>
  <text x="170" y="210">ぞ</text>
  <text x="190" y="210">だ</text>
  <text x="210" y="210">ぢ</text>
  <text x="230" y="210">づ</text>
  <text x="250" y="210">で</text>
  <text x="270" y="210">ど</text>
  <text x="290" y="210">ば</text>
  <text x="310" y="210">び</text>
  <text x="330" y="210">ぶ</text>

  <text x="30" y="230">べ</text>
  <text x="50" y="230">ぼ</text>
  <text x="70" y="230">ぱ</text>
  <text x="90" y="230">ぴ</text>
  <text x="110" y="230">ぷ</text>
  <text x="130" y="230">ぺ</text>
  <text x="150" y="230">ぽ</text>
  <text x="170" y="230">ぁ</text>
  <text x="190" y="230">ぃ</text>
  <text x="210" y="230">ぅ</text>
  <text x="230" y="230">ぇ</text>
  <text x="250" y="230">ぉ</text>
  <text x="270" y="230">ゃ</text>
  <text x="290" y="230">ゅ</text>
  <text x="310" y="230">ょ</text>
  <text x="330" y="230">っ</text>

  <text x="30" y="250">ヲ</text>
  <text x="50" y="250">ア</text>
  <text x="70" y="250">イ</text>
  <text x="90" y="250">ウ</text>
  <text x="110" y="250">エ</text>
  <text x="130" y="250">オ</text>
  <text x="150" y="250">カ</text>
  <text x="170" y="250">キ</text>
  <text x="190" y="250">ク</text>
  <text x="210" y="250">ケ</text>
  <text x="230" y="250">コ</text>
  <text x="250" y="250">サ</text>
  <text x="270" y="250">シ</text>
  <text x="290" y="250">ス</text>
  <text x="310" y="250">セ</text>
  <text x="330" y="250">ソ</text>

  <text x="30" y="270">タ</text>
  <text x="50" y="270">チ</text>
  <text x="70" y="270">ツ</text>
  <text x="90" y="270">テ</text>
  <text x="110" y="270">ト</text>
  <text x="130" y="270">ナ</text>
  <text x="150" y="270">ニ</text>
  <text x="170" y="270">ヌ</text>
  <text x="190" y="270">ネ</text>
  <text x="210" y="270">ノ</text>
  <text x="230" y="270">ハ</text>
  <text x="250" y="270">ヒ</text>
  <text x="270" y="270">フ</text>
  <text x="290" y="270">ヘ</text>
  <text x="310" y="270">ホ</text>
  <text x="330" y="270">マ</text>

  <text x="30" y="290">ミ</text>
  <text x="50" y="290">ム</text>
  <text x="70" y="290">メ</text>
  <text x="90" y="290">モ</text>
  <text x="110" y="290">ヤ</text>
  <text x="130" y="290">ユ</text>
  <text x="150" y="290">ヨ</text>
  <text x="170" y="290">ラ</text>
  <text x="190" y="290">リ</text>
  <text x="210" y="290">ル</text>
  <text x="230" y="290">レ</text>
  <text x="250" y="290">ロ</text>
  <text x="270" y="290">ワ</text>
  <text x="290" y="290">ン</text>
  <text x="310" y="290">ガ</text>
  <text x="330" y="290">ギ</text>

  <text x="30" y="310">グ</text>
  <text x="50" y="310">ゲ</text>
  <text x="70" y="310">ご</text>
  <text x="90" y="310">ザ</text>
  <text x="110" y="310">ジ</text>
  <text x="130" y="310">ズ</text>
  <text x="150" y="310">ゼ</text>
  <text x="170" y="310">ゾ</text>
  <text x="190" y="310">ダ</text>
  <text x="210" y="310">ヂ</text>
  <text x="230" y="310">ヅ</text>
  <text x="250" y="310">デ</text>
  <text x="270" y="310">ド</text>
  <text x="290" y="310">バ</text>
  <text x="310" y="310">ビ</text>
  <text x="330" y="310">ブ</text>

  <text x="30" y="330">ベ</text>
  <text x="50" y="330">ボ</text>
  <text x="70" y="330">パ</text>
  <text x="90" y="330">ピ</text>
  <text x="110" y="330">プ</text>
  <text x="130" y="330">ペ</text>
  <text x="150" y="330">ポ</text>
  <text x="170" y="330">ァ</text>
  <text x="190" y="330">ィ</text>
  <text x="210" y="330">ゥ</text>
  <text x="230" y="330">ェ</text>
  <text x="250" y="330">ォ</text>
  <text x="270" y="330">ャ</text>
  <text x="290" y="330">ュ</text>
  <text x="310" y="330">ョ</text>
  <text x="330" y="330">ッ</text>

  <text x="50" y="360">ASCII</text>
  <text x="50" y="380">Moved</text>
  <text x="170" y="360">ひらがな</text>
  <text x="170" y="380">カタカナ</text>
  <text x="290" y="370">JIS X 0201</text>
</svg>
