<?xml version="1.0" encoding="UTF-8" standalone="no"?>
<!DOCTYPE svg PUBLIC "-//W3C//DTD SVG 20010904//EN"
                     "http://www.w3.org/TR/2001/REC-SVG-20010904/DTD/svg10.dtd">
<svg xmlns="http://www.w3.org/2000/svg" width="340" height="390" viewBox="0 0 340 390">
  <style>
    path { stroke-width: 2px; stroke-linejoin: round; fill-rule: evenodd }
    text { font: 13px monospace; text-anchor: middle; alignment-baseline: central }
  </style>
  <path d="M22,22h16v16h-16zM22,62h316v96h-60v20h-16v-20h-24v20h-216v-16h20v-24h-20zM258,118v24h24v-24zM2,352h96v16h-96z" fill="rgba(0, 0, 255, 0.2)" stroke="rgba(0, 0, 255, 0.8)"/>
  <path d="M322,162h16v16h-16zM2,372h96v16h-96z" fill="rgba(0, 127, 255, 0.2)" stroke="rgba(0, 127, 255, 0.8)"/>
  <path d="M62,222h276v56h-40v20h-276v-56h40zM122,352h96v16h-96z" fill="rgba(255, 0, 0, 0.2)" stroke="rgba(255, 0, 0, 0.8)"/>
  <path d="M262,122h16v16h-16zM242,162h16v16h-16zM282,162h36v16h-36zM242,352h96v16h-96z" fill="rgba(0, 127, 0, 0.2)" stroke="rgba(0, 127, 0, 0.8)"/>
  <path d="M302,282h36v16h-36zM122,372h96v16h-96z" fill="rgba(255, 127, 0, 0.2)" stroke="rgba(255, 127, 0, 0.8)"/>
  <path d="M42,22h296v16h-160v20h-156v-16h20zM242,372h96v16h-96z" fill="rgba(191, 191, 0, 0.2)" stroke="rgba(191, 191, 0, 0.8)"/>

  <text x="30" y="10">x0</text>
  <text x="50" y="10">x1</text>
  <text x="70" y="10">x2</text>
  <text x="90" y="10">x3</text>
  <text x="110" y="10">x4</text>
  <text x="130" y="10">x5</text>
  <text x="150" y="10">x6</text>
  <text x="170" y="10">x7</text>
  <text x="190" y="10">x8</text>
  <text x="210" y="10">x9</text>
  <text x="230" y="10">xA</text>
  <text x="250" y="10">xB</text>
  <text x="270" y="10">xC</text>
  <text x="290" y="10">xD</text>
  <text x="310" y="10">xE</text>
  <text x="330" y="10">xF</text>

  <text x="10" y="30">0x</text>
  <text x="10" y="50">1x</text>
  <text x="10" y="70">2x</text>
  <text x="10" y="90">3x</text>
  <text x="10" y="110">4x</text>
  <text x="10" y="130">5x</text>
  <text x="10" y="150">6x</text>
  <text x="10" y="170">7x</text>
  <text x="10" y="190">8x</text>
  <text x="10" y="210">9x</text>
  <text x="10" y="230">Ax</text>
  <text x="10" y="250">Bx</text>
  <text x="10" y="270">Cx</text>
  <text x="10" y="290">Dx</text>
  <text x="10" y="310">Ex</text>
  <text x="10" y="330">Fx</text>

  <text x="30" y="30">␀</text>

  <text x="310" y="30">カ</text>
  <text x="330" y="30">ひ</text>

  <text x="30" y="50">░</text>
  <text x="50" y="50">▒</text>
  <text x="70" y="50">▓</text>
  <text x="90" y="50">█</text>
  <text x="110" y="50">░</text>
  <text x="130" y="50">▒</text>
  <text x="150" y="50">▓</text>
  <text x="170" y="50">█</text>

  <text x="30" y="70"> </text>
  <text x="50" y="70">!</text>
  <text x="70" y="70">"</text>
  <text x="90" y="70">#</text>
  <text x="110" y="70">$</text>
  <text x="130" y="70">%</text>
  <text x="150" y="70">&amp;</text>
  <text x="170" y="70">'</text>
  <text x="190" y="70">(</text>
  <text x="210" y="70">)</text>
  <text x="230" y="70">*</text>
  <text x="250" y="70">+</text>
  <text x="270" y="70">,</text>
  <text x="290" y="70">-</text>
  <text x="310" y="70">.</text>
  <text x="330" y="70">/</text>

  <text x="30" y="90">0</text>
  <text x="50" y="90">1</text>
  <text x="70" y="90">2</text>
  <text x="90" y="90">3</text>
  <text x="110" y="90">4</text>
  <text x="130" y="90">5</text>
  <text x="150" y="90">6</text>
  <text x="170" y="90">7</text>
  <text x="190" y="90">8</text>
  <text x="210" y="90">9</text>
  <text x="230" y="90">:</text>
  <text x="250" y="90">;</text>
  <text x="270" y="90">&lt;</text>
  <text x="290" y="90">=</text>
  <text x="310" y="90">&gt;</text>
  <text x="330" y="90">?</text>

  <text x="30" y="110">@</text>
  <text x="50" y="110">A</text>
  <text x="70" y="110">B</text>
  <text x="90" y="110">C</text>
  <text x="110" y="110">D</text>
  <text x="130" y="110">E</text>
  <text x="150" y="110">F</text>
  <text x="170" y="110">G</text>
  <text x="190" y="110">H</text>
  <text x="210" y="110">I</text>
  <text x="230" y="110">J</text>
  <text x="250" y="110">K</text>
  <text x="270" y="110">L</text>
  <text x="290" y="110">M</text>
  <text x="310" y="110">N</text>
  <text x="330" y="110">O</text>

  <text x="30" y="130">P</text>
  <text x="50" y="130">Q</text>
  <text x="70" y="130">R</text>
  <text x="90" y="130">S</text>
  <text x="110" y="130">T</text>
  <text x="130" y="130">U</text>
  <text x="150" y="130">V</text>
  <text x="170" y="130">W</text>
  <text x="190" y="130">X</text>
  <text x="210" y="130">Y</text>
  <text x="230" y="130">Z</text>
  <text x="250" y="130">[</text>
  <text x="270" y="130">¥</text>
  <text x="290" y="130">]</text>
  <text x="310" y="130">^</text>
  <text x="330" y="130">_</text>

  <text x="50" y="150">a</text>
  <text x="70" y="150">b</text>
  <text x="90" y="150">c</text>
  <text x="110" y="150">d</text>
  <text x="130" y="150">e</text>
  <text x="150" y="150">f</text>
  <text x="170" y="150">g</text>
  <text x="190" y="150">h</text>
  <text x="210" y="150">i</text>
  <text x="230" y="150">j</text>
  <text x="250" y="150">k</text>
  <text x="270" y="150">l</text>
  <text x="290" y="150">m</text>
  <text x="310" y="150">n</text>
  <text x="330" y="150">o</text>

  <text x="30" y="170">p</text>
  <text x="50" y="170">q</text>
  <text x="70" y="170">r</text>
  <text x="90" y="170">s</text>
  <text x="110" y="170">t</text>
  <text x="130" y="170">u</text>
  <text x="150" y="170">v</text>
  <text x="170" y="170">w</text>
  <text x="190" y="170">x</text>
  <text x="210" y="170">y</text>
  <text x="230" y="170">z</text>
  <text x="250" y="170">｢</text>
  <text x="270" y="170">|</text>
  <text x="290" y="170">｣</text>
  <text x="310" y="170">¯</text>
  <text x="330" y="170">\</text>

  <text x="70" y="230">「</text>
  <text x="90" y="230">」</text>
  <text x="110" y="230">、</text>
  <text x="130" y="230">。</text>
  <text x="150" y="230">ヲ</text>
  <text x="170" y="230">ァ</text>
  <text x="190" y="230">ィ</text>
  <text x="210" y="230">ゥ</text>
  <text x="230" y="230">ェ</text>
  <text x="250" y="230">ォ</text>
  <text x="270" y="230">ャ</text>
  <text x="290" y="230">ュ</text>
  <text x="310" y="230">ョ</text>
  <text x="330" y="230">ッ</text>

  <text x="30" y="250">ー</text>
  <text x="50" y="250">ア</text>
  <text x="70" y="250">イ</text>
  <text x="90" y="250">ウ</text>
  <text x="110" y="250">エ</text>
  <text x="130" y="250">オ</text>
  <text x="150" y="250">カ</text>
  <text x="170" y="250">キ</text>
  <text x="190" y="250">ク</text>
  <text x="210" y="250">ケ</text>
  <text x="230" y="250">コ</text>
  <text x="250" y="250">サ</text>
  <text x="270" y="250">シ</text>
  <text x="290" y="250">ス</text>
  <text x="310" y="250">セ</text>
  <text x="330" y="250">ソ</text>

  <text x="30" y="270">タ</text>
  <text x="50" y="270">チ</text>
  <text x="70" y="270">ツ</text>
  <text x="90" y="270">テ</text>
  <text x="110" y="270">ト</text>
  <text x="130" y="270">ナ</text>
  <text x="150" y="270">ニ</text>
  <text x="170" y="270">ヌ</text>
  <text x="190" y="270">ネ</text>
  <text x="210" y="270">ノ</text>
  <text x="230" y="270">ハ</text>
  <text x="250" y="270">ヒ</text>
  <text x="270" y="270">フ</text>
  <text x="290" y="270">ヘ</text>
  <text x="310" y="270">ホ</text>
  <text x="330" y="270">マ</text>

  <text x="30" y="290">ミ</text>
  <text x="50" y="290">ム</text>
  <text x="70" y="290">メ</text>
  <text x="90" y="290">モ</text>
  <text x="110" y="290">ヤ</text>
  <text x="130" y="290">ユ</text>
  <text x="150" y="290">ヨ</text>
  <text x="170" y="290">ラ</text>
  <text x="190" y="290">リ</text>
  <text x="210" y="290">ル</text>
  <text x="230" y="290">レ</text>
  <text x="250" y="290">ロ</text>
  <text x="270" y="290">ワ</text>
  <text x="290" y="290">ン</text>
  <text x="310" y="290">゛</text>
  <text x="330" y="290">゜</text>

  <text x="50" y="360">ASCII</text>
  <text x="50" y="380">Moved</text>
  <text x="170" y="360">ひら･カタカナ</text>
  <text x="170" y="380">Diacritics</text>
  <text x="290" y="360">JIS X 0201</text>
  <text x="290" y="380">Control</text>
</svg>
