<?xml version="1.0" encoding="UTF-8"?>
<!DOCTYPE svg PUBLIC "-//W3C//DTD SVG 1.1//EN" "http://www.w3.org/Graphics/SVG/1.1/DTD/svg11.dtd">
<svg version="1.1" xmlns="http://www.w3.org/2000/svg" width="256" height="256" viewBox="0 0 256 256">
  <path d="M20,0 A20,20 0,0,0 0,20 V236 A20,20 0,0,0 20,256 H236 A20,20 0,0,0 256,236 V20 A20,20 0,0,0 236,0 z" style="fill: #0f22ad"/>
  <g style="fill: none; stroke-width: 10; stroke-linecap: round; stroke-linejoin: round">
    <path d="M80,106A26,26 0,0,0 106,80M80,130A50,50 0,0,0 130,80M80,154A74,74 0,0,0 154,80M21,59L54,92L92,54L59,21zM-3,28L6,18M50,-7L112,54L54,112L-7,50M18,6L28,-3" style="stroke: white"/>
    <path d="M176,150A26,26 0,0,0 150,176M176,126A50,50 0,0,0 126,176M176,102A74,74 0,0,0 102,176M235,197L202,164L164,202L197,235zM260,228L250,238M206,264L144,202L202,144L264,206M238,250L228,260" style="stroke: #ffdc0d"/>
  </g>
  <path d="M45,1L51,7L47,11L51,15L45,21L41,17L37,21L31,15L35,11L31,7L37,1L41,5L45,1zM8,30a6,6 0,0,0 12,0a6,6 0,0,0 -12,0M2,44a6,6 0,0,0 12,0a6,6 0,0,0 -12,0" style="fill: white"/>
  <path d="M211,255L205,249L209,245L205,241L211,235L215,239L219,235L225,241L221,245L225,249L219,255L215,251L211,255zM248,226a6,6 0,0,0 -12,0a6,6 0,0,0 12,0M254,212a6,6 0,0,0 -12,0a6,6 0,0,0 12,0" style="fill: #ffdc0d"/>
</svg>
